<svg width="48" height="49" viewBox="0 0 48 49" fill="none" xmlns="http://www.w3.org/2000/svg">
<path d="M7.99976 42.2657C6.89976 42.2657 5.95842 41.8744 5.17576 41.0917C4.39309 40.3091 4.00109 39.3671 3.99976 38.2657V16.2657C3.99976 15.1657 4.39176 14.2244 5.17576 13.4417C5.95976 12.6591 6.90109 12.2671 7.99976 12.2657H15.9998V8.26575C15.9998 7.16575 16.3918 6.22441 17.1758 5.44175C17.9598 4.65908 18.9011 4.26708 19.9998 4.26575H27.9998C29.0998 4.26575 30.0418 4.65775 30.8258 5.44175C31.6098 6.22575 32.0011 7.16708 31.9998 8.26575V12.2657H39.9998C41.0998 12.2657 42.0418 12.6577 42.8258 13.4417C43.6098 14.2257 44.0011 15.1671 43.9998 16.2657V38.2657C43.9998 39.3657 43.6084 40.3077 42.8258 41.0917C42.0431 41.8757 41.1011 42.2671 39.9998 42.2657H7.99976ZM19.9998 12.2657H27.9998V8.26575H19.9998V12.2657ZM39.9998 30.2657H29.9998V32.2657C29.9998 32.8324 29.8078 33.3077 29.4238 33.6917C29.0398 34.0757 28.5651 34.2671 27.9998 34.2657H19.9998C19.4331 34.2657 18.9584 34.0737 18.5758 33.6897C18.1931 33.3057 18.0011 32.8311 17.9998 32.2657V30.2657H7.99976V38.2657H39.9998V30.2657ZM21.9998 30.2657H25.9998V26.2657H21.9998V30.2657ZM7.99976 26.2657H17.9998V24.2657C17.9998 23.6991 18.1918 23.2244 18.5758 22.8417C18.9598 22.4591 19.4344 22.2671 19.9998 22.2657H27.9998C28.5664 22.2657 29.0418 22.4577 29.4258 22.8417C29.8098 23.2257 30.0011 23.7004 29.9998 24.2657V26.2657H39.9998V16.2657H7.99976V26.2657Z" fill="#001A45"/>
</svg>
