<svg width="247" height="51" viewBox="0 0 247 51" fill="none" xmlns="http://www.w3.org/2000/svg">
<path d="M0.395914 3.19453C-0.263808 2.30862 -0.0804446 1.05564 0.805468 0.395912C1.69138 -0.263809 2.94436 -0.0804443 3.60409 0.80547L0.395914 3.19453ZM241.71 0.0210762C242.803 -0.138863 243.819 0.617474 243.979 1.7104L246.585 19.5207C246.745 20.6136 245.989 21.6293 244.896 21.7892C243.803 21.9492 242.787 21.1928 242.627 20.0999L240.311 4.26852L224.479 6.58531C223.386 6.74525 222.371 5.98891 222.211 4.89598C222.051 3.80305 222.807 2.7874 223.9 2.62746L241.71 0.0210762ZM2 2C3.60409 0.80547 3.60354 0.804733 3.60313 0.80418C3.60317 0.804234 3.60289 0.80386 3.60296 0.803963C3.60312 0.804173 3.60381 0.805096 3.60503 0.806721C3.60748 0.809967 3.61205 0.816036 3.61876 0.824875C3.63218 0.842552 3.65414 0.871319 3.68471 0.91082C3.74584 0.989819 3.84138 1.11174 3.97178 1.27373C4.23257 1.59772 4.63275 2.08192 5.17593 2.7035C6.26233 3.94672 7.92034 5.73904 10.1789 7.89804C14.6961 12.2162 21.6132 17.999 31.1621 23.7899C50.246 35.3634 79.8901 47 122 47V51C79.1099 51 48.754 39.1366 29.0879 27.2101C19.2618 21.251 12.1164 15.2838 7.41488 10.7895C5.06403 8.54221 3.3236 6.66265 2.16392 5.33557C1.58404 4.67199 1.14926 4.14642 0.855861 3.78193C0.709157 3.59968 0.597786 3.45769 0.521287 3.35883C0.483036 3.30941 0.453502 3.27076 0.432627 3.24326C0.422189 3.2295 0.413915 3.21854 0.407799 3.2104C0.404741 3.20634 0.402222 3.20298 0.400241 3.20033C0.399251 3.19901 0.398168 3.19756 0.397674 3.19689C0.396727 3.19563 0.395914 3.19453 2 2ZM122 47C164.11 47 193.754 35.3634 212.838 23.7899C222.387 17.999 229.304 12.2162 233.821 7.89804C236.08 5.73904 237.738 3.94672 238.824 2.7035C239.367 2.08192 239.767 1.59772 240.028 1.27373C240.159 1.11174 240.254 0.989819 240.315 0.91082C240.346 0.871319 240.368 0.842552 240.381 0.824875C240.388 0.816036 240.393 0.809967 240.395 0.806721C240.396 0.805096 240.397 0.804173 240.397 0.803963C240.397 0.80386 240.397 0.804234 240.397 0.80418C240.396 0.804733 240.396 0.80547 242 2C243.604 3.19453 243.603 3.19563 243.602 3.19689C243.602 3.19756 243.601 3.19901 243.6 3.20033C243.598 3.20298 243.595 3.20634 243.592 3.2104C243.586 3.21854 243.578 3.2295 243.567 3.24326C243.546 3.27076 243.517 3.30941 243.479 3.35883C243.402 3.45769 243.291 3.59968 243.144 3.78193C242.851 4.14642 242.416 4.67199 241.836 5.33557C240.676 6.66265 238.936 8.54221 236.585 10.7895C231.884 15.2838 224.738 21.251 214.912 27.2101C195.246 39.1366 164.89 51 122 51V47Z" fill="#598D4B"/>
</svg>
