<svg width="247" height="51" viewBox="0 0 247 51" fill="none" xmlns="http://www.w3.org/2000/svg">
<path d="M0.395914 47.8055C-0.263808 48.6914 -0.0804446 49.9444 0.805468 50.6041C1.69138 51.2638 2.94436 51.0804 3.60409 50.1945L0.395914 47.8055ZM241.71 50.9789C242.803 51.1389 243.819 50.3825 243.979 49.2896L246.585 31.4793C246.745 30.3864 245.989 29.3707 244.896 29.2108C243.803 29.0508 242.787 29.8072 242.627 30.9001L240.311 46.7315L224.479 44.4147C223.386 44.2548 222.371 45.0111 222.211 46.104C222.051 47.1969 222.807 48.2126 223.9 48.3725L241.71 50.9789ZM2 49C3.60409 50.1945 3.60354 50.1953 3.60313 50.1958C3.60317 50.1958 3.60289 50.1961 3.60296 50.196C3.60312 50.1958 3.60381 50.1949 3.60503 50.1933C3.60748 50.19 3.61205 50.184 3.61876 50.1751C3.63218 50.1574 3.65414 50.1287 3.68471 50.0892C3.74584 50.0102 3.84138 49.8883 3.97178 49.7263C4.23257 49.4023 4.63275 48.9181 5.17593 48.2965C6.26233 47.0533 7.92034 45.261 10.1789 43.102C14.6961 38.7838 21.6132 33.001 31.1621 27.2101C50.246 15.6366 79.8901 4 122 4V0C79.1099 0 48.754 11.8634 29.0879 23.7899C19.2618 29.749 12.1164 35.7162 7.41488 40.2105C5.06403 42.4578 3.3236 44.3373 2.16392 45.6644C1.58404 46.328 1.14926 46.8536 0.855861 47.2181C0.709157 47.4003 0.597786 47.5423 0.521287 47.6412C0.483036 47.6906 0.453502 47.7292 0.432627 47.7567C0.422189 47.7705 0.413915 47.7815 0.407799 47.7896C0.404741 47.7937 0.402222 47.797 0.400241 47.7997C0.399251 47.801 0.398168 47.8024 0.397674 47.8031C0.396727 47.8044 0.395914 47.8055 2 49ZM122 4C164.11 4 193.754 15.6366 212.838 27.2101C222.387 33.001 229.304 38.7838 233.821 43.102C236.08 45.261 237.738 47.0533 238.824 48.2965C239.367 48.9181 239.767 49.4023 240.028 49.7263C240.159 49.8883 240.254 50.0102 240.315 50.0892C240.346 50.1287 240.368 50.1574 240.381 50.1751C240.388 50.184 240.393 50.19 240.395 50.1933C240.396 50.1949 240.397 50.1958 240.397 50.196C240.397 50.1961 240.397 50.1958 240.397 50.1958C240.396 50.1953 240.396 50.1945 242 49C243.604 47.8055 243.603 47.8044 243.602 47.8031C243.602 47.8024 243.601 47.801 243.6 47.7997C243.598 47.797 243.595 47.7937 243.592 47.7896C243.586 47.7815 243.578 47.7705 243.567 47.7567C243.546 47.7292 243.517 47.6906 243.479 47.6412C243.402 47.5423 243.291 47.4003 243.144 47.2181C242.851 46.8536 242.416 46.328 241.836 45.6644C240.676 44.3373 238.936 42.4578 236.585 40.2105C231.884 35.7162 224.738 29.749 214.912 23.7899C195.246 11.8634 164.89 0 122 0V4Z" fill="#598D4B"/>
</svg>
