<svg width="18" height="19" viewBox="0 0 18 19" fill="none" xmlns="http://www.w3.org/2000/svg">
<path d="M17.4003 1.11339C17.2769 0.989783 17.1304 0.891719 16.9691 0.824811C16.8078 0.757902 16.6349 0.723462 16.4603 0.723462C16.2857 0.723462 16.1128 0.757902 15.9515 0.824811C15.7902 0.891719 15.6436 0.989783 15.5203 1.11339L9.0003 7.62005L2.4803 1.10005C2.35686 0.976611 2.21031 0.878691 2.04902 0.811885C1.88774 0.745078 1.71487 0.710693 1.5403 0.710693C1.36572 0.710693 1.19286 0.745078 1.03157 0.811885C0.870288 0.878691 0.723741 0.976611 0.600298 1.10005C0.476855 1.2235 0.378935 1.37004 0.312129 1.53133C0.245322 1.69261 0.210937 1.86548 0.210938 2.04005C0.210938 2.21463 0.245322 2.38749 0.312129 2.54878C0.378935 2.71006 0.476855 2.85661 0.600298 2.98005L7.1203 9.50005L0.600298 16.0201C0.476855 16.1435 0.378935 16.29 0.312129 16.4513C0.245322 16.6126 0.210938 16.7855 0.210938 16.9601C0.210937 17.1346 0.245322 17.3075 0.312129 17.4688C0.378935 17.6301 0.476855 17.7766 0.600298 17.9001C0.723741 18.0235 0.870288 18.1214 1.03157 18.1882C1.19286 18.255 1.36572 18.2894 1.5403 18.2894C1.71487 18.2894 1.88774 18.255 2.04902 18.1882C2.21031 18.1214 2.35686 18.0235 2.4803 17.9001L9.0003 11.3801L15.5203 17.9001C15.6437 18.0235 15.7903 18.1214 15.9516 18.1882C16.1129 18.255 16.2857 18.2894 16.4603 18.2894C16.6349 18.2894 16.8077 18.255 16.969 18.1882C17.1303 18.1214 17.2769 18.0235 17.4003 17.9001C17.5237 17.7766 17.6217 17.6301 17.6885 17.4688C17.7553 17.3075 17.7897 17.1346 17.7897 16.9601C17.7897 16.7855 17.7553 16.6126 17.6885 16.4513C17.6217 16.29 17.5237 16.1435 17.4003 16.0201L10.8803 9.50005L17.4003 2.98005C17.907 2.47339 17.907 1.62005 17.4003 1.11339Z" fill="#03132F"/>
</svg>
