<svg width="32" height="33" viewBox="0 0 32 33" fill="none" xmlns="http://www.w3.org/2000/svg">
<path d="M24.4003 8.11339C24.2769 7.98978 24.1304 7.89172 23.9691 7.82481C23.8078 7.7579 23.6349 7.72346 23.4603 7.72346C23.2857 7.72346 23.1128 7.7579 22.9515 7.82481C22.7902 7.89172 22.6436 7.98978 22.5203 8.11339L16.0003 14.6201L9.4803 8.10005C9.35686 7.97661 9.21031 7.87869 9.04902 7.81188C8.88774 7.74508 8.71487 7.71069 8.5403 7.71069C8.36572 7.71069 8.19286 7.74508 8.03157 7.81188C7.87029 7.87869 7.72374 7.97661 7.6003 8.10005C7.47686 8.2235 7.37894 8.37004 7.31213 8.53133C7.24532 8.69261 7.21094 8.86548 7.21094 9.04005C7.21094 9.21463 7.24532 9.38749 7.31213 9.54878C7.37894 9.71006 7.47686 9.85661 7.6003 9.98005L14.1203 16.5001L7.6003 23.0201C7.47686 23.1435 7.37894 23.29 7.31213 23.4513C7.24532 23.6126 7.21094 23.7855 7.21094 23.9601C7.21094 24.1346 7.24532 24.3075 7.31213 24.4688C7.37894 24.6301 7.47686 24.7766 7.6003 24.9001C7.72374 25.0235 7.87029 25.1214 8.03157 25.1882C8.19286 25.255 8.36572 25.2894 8.5403 25.2894C8.71487 25.2894 8.88774 25.255 9.04902 25.1882C9.21031 25.1214 9.35686 25.0235 9.4803 24.9001L16.0003 18.3801L22.5203 24.9001C22.6437 25.0235 22.7903 25.1214 22.9516 25.1882C23.1129 25.255 23.2857 25.2894 23.4603 25.2894C23.6349 25.2894 23.8077 25.255 23.969 25.1882C24.1303 25.1214 24.2769 25.0235 24.4003 24.9001C24.5237 24.7766 24.6217 24.6301 24.6885 24.4688C24.7553 24.3075 24.7897 24.1346 24.7897 23.9601C24.7897 23.7855 24.7553 23.6126 24.6885 23.4513C24.6217 23.29 24.5237 23.1435 24.4003 23.0201L17.8803 16.5001L24.4003 9.98005C24.907 9.47339 24.907 8.62005 24.4003 8.11339Z" fill="#03132F"/>
</svg>
