<svg width="24" height="24" viewBox="0 0 24 24" fill="none" xmlns="http://www.w3.org/2000/svg">
<path d="M5.625 1.5C4.589 1.5 3.75 2.34 3.75 3.375V20.625C3.75 21.66 4.59 22.5 5.625 22.5H18.375C19.41 22.5 20.25 21.66 20.25 20.625V12.75C20.25 11.7554 19.8549 10.8016 19.1517 10.0983C18.4484 9.39509 17.4946 9 16.5 9H14.625C14.1277 9 13.6508 8.80246 13.2992 8.45083C12.9475 8.0992 12.75 7.62228 12.75 7.125V5.25C12.75 4.25544 12.3549 3.30161 11.6517 2.59835C10.9484 1.89509 9.99456 1.5 9 1.5H5.625Z" fill="#001A45" fill-opacity="0.3"/>
<path d="M12.9712 1.81592C13.7977 2.76888 14.2519 3.98846 14.2502 5.24992V7.12492C14.2502 7.33192 14.4182 7.49992 14.6252 7.49992H16.5002C17.7616 7.49817 18.9812 7.9524 19.9342 8.77892C19.4942 7.10563 18.6177 5.57922 17.3943 4.3558C16.1709 3.13239 14.6445 2.25588 12.9712 1.81592Z" fill="#001A45" fill-opacity="0.3"/>
</svg>
