<svg width="752" height="56" viewBox="0 0 752 56" fill="none" xmlns="http://www.w3.org/2000/svg">
<rect width="752" height="56" rx="12" fill="#001A45"/>
<g clip-path="url(#clip0_130_1780)">
<path d="M362.5 28C362.5 19.1635 355.337 12 346.5 12C337.663 12 330.5 19.1635 330.5 28C330.5 35.986 336.351 42.6054 344 43.8056V32.625H339.938V28H344V24.475C344 20.465 346.389 18.25 350.044 18.25C351.794 18.25 353.625 18.5625 353.625 18.5625V22.5H351.608C349.62 22.5 349 23.7334 349 24.9987V28H353.438L352.728 32.625H349V43.8056C356.649 42.6054 362.5 35.9861 362.5 28Z" fill="#1877F2"/>
<path d="M352.728 32.625L353.438 28H349V24.9987C349 23.7332 349.62 22.5 351.608 22.5H353.625V18.5625C353.625 18.5625 351.794 18.25 350.043 18.25C346.389 18.25 344 20.465 344 24.475V28H339.938V32.625H344V43.8056C344.827 43.9352 345.663 44.0002 346.5 44C347.337 44.0002 348.173 43.9353 349 43.8056V32.625H352.728Z" fill="white"/>
</g>
<path d="M378.906 25.5078C378.846 24.9496 378.594 24.5149 378.151 24.2038C377.712 23.8928 377.141 23.7372 376.438 23.7372C375.944 23.7372 375.52 23.8118 375.166 23.9609C374.813 24.1101 374.542 24.3125 374.354 24.5682C374.167 24.8239 374.071 25.1158 374.067 25.4439C374.067 25.7166 374.129 25.9531 374.252 26.1534C374.38 26.3537 374.553 26.5241 374.77 26.6648C374.987 26.8011 375.228 26.9162 375.492 27.0099C375.756 27.1037 376.023 27.1825 376.291 27.2464L377.518 27.5533C378.013 27.6683 378.488 27.8239 378.944 28.0199C379.404 28.2159 379.815 28.4631 380.178 28.7614C380.544 29.0597 380.834 29.4197 381.047 29.8416C381.26 30.2635 381.366 30.7578 381.366 31.3246C381.366 32.0916 381.17 32.767 380.778 33.3509C380.386 33.9304 379.82 34.3842 379.078 34.7124C378.341 35.0362 377.448 35.1982 376.4 35.1982C375.381 35.1982 374.497 35.0405 373.747 34.7251C373.001 34.4098 372.418 33.9496 371.996 33.3445C371.578 32.7393 371.352 32.0021 371.318 31.1328H373.651C373.685 31.5888 373.826 31.968 374.073 32.2706C374.32 32.5732 374.642 32.799 375.038 32.9482C375.439 33.0973 375.886 33.1719 376.381 33.1719C376.896 33.1719 377.348 33.0952 377.736 32.9418C378.128 32.7841 378.435 32.5668 378.656 32.2898C378.878 32.0085 378.991 31.6804 378.995 31.3054C378.991 30.9645 378.891 30.6832 378.695 30.4616C378.499 30.2358 378.224 30.0483 377.87 29.8991C377.521 29.7457 377.112 29.6094 376.643 29.4901L375.153 29.1065C374.075 28.8295 373.223 28.4098 372.597 27.8473C371.974 27.2805 371.663 26.5284 371.663 25.5909C371.663 24.8196 371.872 24.1442 372.29 23.5646C372.712 22.9851 373.285 22.5355 374.009 22.2159C374.734 21.892 375.554 21.7301 376.47 21.7301C377.399 21.7301 378.213 21.892 378.912 22.2159C379.615 22.5355 380.167 22.9808 380.567 23.5518C380.968 24.1186 381.175 24.7706 381.188 25.5078H378.906ZM385.692 29.2472V35H383.378V21.9091H385.641V26.8501H385.756C385.986 26.2962 386.342 25.8594 386.824 25.5398C387.309 25.2159 387.927 25.054 388.677 25.054C389.359 25.054 389.954 25.1967 390.461 25.4822C390.968 25.7678 391.36 26.1854 391.637 26.7351C391.918 27.2848 392.059 27.956 392.059 28.7486V35H389.745V29.1065C389.745 28.446 389.574 27.9325 389.233 27.5661C388.897 27.1953 388.424 27.0099 387.814 27.0099C387.405 27.0099 387.039 27.0994 386.715 27.2784C386.395 27.4531 386.144 27.7067 385.961 28.0391C385.782 28.3714 385.692 28.7741 385.692 29.2472ZM397.243 35.1982C396.621 35.1982 396.06 35.0874 395.562 34.8658C395.067 34.6399 394.675 34.3075 394.385 33.8686C394.1 33.4297 393.957 32.8885 393.957 32.245C393.957 31.6911 394.059 31.233 394.264 30.8707C394.469 30.5085 394.748 30.2188 395.101 30.0014C395.455 29.7841 395.854 29.62 396.297 29.5092C396.744 29.3942 397.206 29.3111 397.684 29.2599C398.259 29.2003 398.726 29.147 399.084 29.1001C399.442 29.049 399.702 28.9723 399.863 28.87C400.03 28.7635 400.113 28.5994 400.113 28.3778V28.3395C400.113 27.858 399.97 27.4851 399.684 27.2209C399.399 26.9567 398.988 26.8246 398.451 26.8246C397.884 26.8246 397.434 26.9482 397.102 27.1953C396.774 27.4425 396.552 27.7344 396.437 28.071L394.277 27.7642C394.447 27.1676 394.729 26.669 395.121 26.2685C395.513 25.8636 395.992 25.5611 396.559 25.3608C397.126 25.1562 397.752 25.054 398.438 25.054C398.911 25.054 399.382 25.1094 399.851 25.2202C400.319 25.331 400.748 25.5142 401.135 25.7699C401.523 26.0213 401.834 26.3643 402.069 26.799C402.307 27.2337 402.427 27.777 402.427 28.429V35H400.202V33.6513H400.126C399.985 33.924 399.787 34.1797 399.531 34.4183C399.28 34.6527 398.962 34.8423 398.579 34.9872C398.199 35.1278 397.754 35.1982 397.243 35.1982ZM397.844 33.4979C398.308 33.4979 398.711 33.4062 399.052 33.223C399.393 33.0355 399.655 32.7884 399.838 32.4815C400.025 32.1747 400.119 31.8402 400.119 31.478V30.321C400.047 30.3807 399.923 30.4361 399.748 30.4872C399.578 30.5384 399.386 30.5831 399.173 30.6214C398.96 30.6598 398.749 30.6939 398.54 30.7237C398.331 30.7536 398.15 30.7791 397.997 30.8004C397.652 30.8473 397.343 30.924 397.07 31.0305C396.797 31.1371 396.582 31.2862 396.425 31.478C396.267 31.6655 396.188 31.9084 396.188 32.2067C396.188 32.6328 396.344 32.9545 396.655 33.1719C396.966 33.3892 397.362 33.4979 397.844 33.4979ZM404.753 35V25.1818H406.997V26.8182H407.099C407.278 26.2514 407.585 25.8146 408.02 25.5078C408.459 25.1967 408.959 25.0412 409.522 25.0412C409.65 25.0412 409.792 25.0476 409.95 25.0604C410.112 25.0689 410.246 25.0838 410.353 25.1051V27.2337C410.255 27.1996 410.099 27.1697 409.886 27.1442C409.677 27.1143 409.475 27.0994 409.279 27.0994C408.857 27.0994 408.478 27.1911 408.141 27.3743C407.809 27.5533 407.547 27.8026 407.355 28.1222C407.163 28.4418 407.067 28.8104 407.067 29.228V35H404.753ZM415.832 35.1918C414.848 35.1918 413.998 34.9872 413.282 34.5781C412.57 34.1648 412.023 33.581 411.639 32.8267C411.256 32.0682 411.064 31.1754 411.064 30.1484C411.064 29.1385 411.256 28.2521 411.639 27.4893C412.027 26.7223 412.568 26.1257 413.263 25.6996C413.957 25.2692 414.773 25.054 415.711 25.054C416.316 25.054 416.887 25.152 417.424 25.348C417.965 25.5398 418.442 25.8381 418.856 26.2429C419.273 26.6477 419.602 27.1634 419.84 27.7898C420.079 28.4119 420.198 29.1534 420.198 30.0142V30.7237H412.151V29.1641H417.98C417.976 28.7209 417.88 28.3267 417.692 27.9815C417.505 27.6321 417.243 27.3572 416.906 27.157C416.574 26.9567 416.186 26.8565 415.743 26.8565C415.27 26.8565 414.854 26.9716 414.496 27.2017C414.138 27.4276 413.859 27.7259 413.659 28.0966C413.463 28.4631 413.363 28.8658 413.359 29.3047V30.6662C413.359 31.2372 413.463 31.7273 413.672 32.1364C413.881 32.5412 414.173 32.8523 414.548 33.0696C414.923 33.2827 415.362 33.3892 415.864 33.3892C416.201 33.3892 416.506 33.3423 416.778 33.2486C417.051 33.1506 417.288 33.0078 417.488 32.8203C417.688 32.6328 417.839 32.4006 417.942 32.1236L420.102 32.3665C419.966 32.9375 419.706 33.4361 419.322 33.8622C418.943 34.2841 418.457 34.6122 417.865 34.8466C417.273 35.0767 416.595 35.1918 415.832 35.1918Z" fill="white"/>
<defs>
<clipPath id="clip0_130_1780">
<rect width="32" height="32" fill="white" transform="translate(330.5 12)"/>
</clipPath>
</defs>
</svg>
