<svg width="64" height="64" viewBox="0 0 64 64" fill="none" xmlns="http://www.w3.org/2000/svg">
<rect width="64" height="64" rx="16" fill="white"/>
<g clip-path="url(#clip0_178_1258)">
<path d="M40.5 16H23.5C19.3579 16 16 19.3579 16 23.5V40.5C16 44.6421 19.3579 48 23.5 48H40.5C44.6421 48 48 44.6421 48 40.5V23.5C48 19.3579 44.6421 16 40.5 16Z" fill="white"/>
<path d="M40.5 16H23.5C19.3579 16 16 19.3579 16 23.5V40.5C16 44.6421 19.3579 48 23.5 48H40.5C44.6421 48 48 44.6421 48 40.5V23.5C48 19.3579 44.6421 16 40.5 16Z" fill="#0A66C2"/>
<path d="M39.0894 43.2106H42.7481C42.8807 43.2106 43.0079 43.158 43.1016 43.0642C43.1954 42.9705 43.2481 42.8433 43.2481 42.7108L43.25 34.9805C43.25 30.9401 42.3794 27.8345 37.6577 27.8345C35.8629 27.7678 34.1702 28.693 33.2569 30.238C33.2524 30.2455 33.2456 30.2513 33.2375 30.2546C33.2294 30.2579 33.2205 30.2584 33.2121 30.2562C33.2036 30.2539 33.1962 30.2489 33.1908 30.242C33.1855 30.2351 33.1826 30.2266 33.1825 30.2179V28.7075C33.1825 28.5749 33.1298 28.4477 33.0361 28.3539C32.9423 28.2602 32.8151 28.2075 32.6825 28.2075H29.2104C29.0778 28.2075 28.9506 28.2602 28.8568 28.3539C28.7631 28.4477 28.7104 28.5749 28.7104 28.7075V42.71C28.7104 42.8426 28.7631 42.9698 28.8568 43.0636C28.9506 43.1573 29.0778 43.21 29.2104 43.21H32.8689C33.0015 43.21 33.1287 43.1573 33.2224 43.0636C33.3162 42.9698 33.3689 42.8426 33.3689 42.71V35.7884C33.3689 33.8313 33.7401 31.9359 36.1665 31.9359C38.5584 31.9359 38.5894 34.1754 38.5894 35.9151V42.7106C38.5894 42.8432 38.6421 42.9704 38.7358 43.0642C38.8296 43.1579 38.9568 43.2106 39.0894 43.2106ZM20.75 23.4535C20.75 24.9365 21.9709 26.1567 23.454 26.1567C24.9367 26.1566 26.1569 24.9356 26.1569 23.4529C26.1566 21.9701 24.9364 20.75 23.4535 20.75C21.9702 20.75 20.75 21.9705 20.75 23.4535ZM21.6199 43.2106H25.2832C25.4159 43.2106 25.543 43.1579 25.6368 43.0642C25.7306 42.9704 25.7832 42.8432 25.7832 42.7106V28.7075C25.7832 28.5749 25.7306 28.4477 25.6368 28.3539C25.543 28.2602 25.4159 28.2075 25.2832 28.2075H21.6199C21.4873 28.2075 21.3601 28.2602 21.2663 28.3539C21.1726 28.4477 21.1199 28.5749 21.1199 28.7075V42.7106C21.1199 42.8432 21.1726 42.9704 21.2663 43.0642C21.3601 43.1579 21.4873 43.2106 21.6199 43.2106Z" fill="white"/>
</g>
<defs>
<clipPath id="clip0_178_1258">
<rect width="32" height="32" fill="white" transform="translate(16 16)"/>
</clipPath>
</defs>
</svg>
