<svg width="64" height="64" viewBox="0 0 64 64" fill="none" xmlns="http://www.w3.org/2000/svg">
<rect width="64" height="64" rx="16" fill="white"/>
<g clip-path="url(#clip0_178_1254)">
<path d="M48 32C48 23.1635 40.8365 16 32 16C23.1635 16 16 23.1635 16 32C16 39.986 21.851 46.6054 29.5 47.8056V36.625H25.4375V32H29.5V28.475C29.5 24.465 31.8888 22.25 35.5435 22.25C37.294 22.25 39.125 22.5625 39.125 22.5625V26.5H37.1075C35.1199 26.5 34.5 27.7334 34.5 28.9987V32H38.9375L38.2281 36.625H34.5V47.8056C42.149 46.6054 48 39.9861 48 32Z" fill="#1877F2"/>
<path d="M38.2281 36.625L38.9375 32H34.5V28.9987C34.5 27.7332 35.1199 26.5 37.1075 26.5H39.125V22.5625C39.125 22.5625 37.294 22.25 35.5434 22.25C31.8888 22.25 29.5 24.465 29.5 28.475V32H25.4375V36.625H29.5V47.8056C30.327 47.9352 31.1629 48.0002 32 48C32.8371 48.0002 33.673 47.9353 34.5 47.8056V36.625H38.2281Z" fill="white"/>
</g>
<defs>
<clipPath id="clip0_178_1254">
<rect width="32" height="32" fill="white" transform="translate(16 16)"/>
</clipPath>
</defs>
</svg>
