<svg width="64" height="64" viewBox="0 0 64 64" fill="none" xmlns="http://www.w3.org/2000/svg">
<rect width="64" height="64" rx="16" fill="white"/>
<path d="M45.0738 29.3887H43.9998V29.3334H31.9998V34.6667H39.5352C38.4358 37.7714 35.4818 40.0001 31.9998 40.0001C27.5818 40.0001 23.9998 36.4181 23.9998 32.0001C23.9998 27.5821 27.5818 24.0001 31.9998 24.0001C34.0392 24.0001 35.8945 24.7694 37.3072 26.0261L41.0785 22.2547C38.6972 20.0354 35.5118 18.6667 31.9998 18.6667C24.6365 18.6667 18.6665 24.6367 18.6665 32.0001C18.6665 39.3634 24.6365 45.3334 31.9998 45.3334C39.3632 45.3334 45.3332 39.3634 45.3332 32.0001C45.3332 31.1061 45.2412 30.2334 45.0738 29.3887Z" fill="#FFC107"/>
<path d="M20.2036 25.7941L24.5843 29.0067C25.7696 26.0721 28.6403 24.0001 31.9996 24.0001C34.0389 24.0001 35.8943 24.7694 37.3069 26.0261L41.0783 22.2547C38.6969 20.0354 35.5116 18.6667 31.9996 18.6667C26.8783 18.6667 22.4369 21.5581 20.2036 25.7941Z" fill="#FF3D00"/>
<path d="M32.0004 45.3333C35.4444 45.3333 38.5737 44.0153 40.9397 41.872L36.813 38.38C35.4294 39.4322 33.7387 40.0013 32.0004 40C28.5324 40 25.5877 37.7886 24.4784 34.7026L20.1304 38.0526C22.337 42.3706 26.8184 45.3333 32.0004 45.3333Z" fill="#4CAF50"/>
<path d="M45.074 29.3886H44V29.3333H32V34.6666H39.5353C39.0095 36.1442 38.0622 37.4354 36.8107 38.3806L36.8127 38.3793L40.9393 41.8713C40.6473 42.1366 45.3333 38.6666 45.3333 31.9999C45.3333 31.1059 45.2413 30.2333 45.074 29.3886Z" fill="#1976D2"/>
</svg>
