<svg width="41" height="40" viewBox="0 0 41 40" fill="none" xmlns="http://www.w3.org/2000/svg">
<rect x="0.5" width="40" height="40" rx="20" fill="url(#paint0_linear_119_592)"/>
<g clip-path="url(#clip0_119_592)">
<path fill-rule="evenodd" clip-rule="evenodd" d="M26.9901 23.7139C27.7309 23.4158 28.3656 22.9028 28.8126 22.2411C29.2596 21.5793 29.4984 20.799 29.4984 20.0004C29.4984 19.2019 29.2596 18.4215 28.8126 17.7598C28.3656 17.098 27.7309 16.5851 26.9901 16.2869C27.0461 15.5108 26.8745 14.7352 26.4963 14.0552C26.1181 13.3751 25.5498 12.8201 24.861 12.4582C24.1721 12.0962 23.3927 11.9431 22.6181 12.0175C21.8435 12.0918 21.1075 12.3905 20.5001 12.8769C19.8927 12.3905 19.1566 12.0918 18.3821 12.0175C17.6075 11.9431 16.828 12.0962 16.1392 12.4582C15.4504 12.8201 14.882 13.3751 14.5039 14.0552C14.1257 14.7352 13.9541 15.5108 14.0101 16.2869C13.2693 16.5851 12.6345 17.098 12.1876 17.7598C11.7406 18.4215 11.5017 19.2019 11.5017 20.0004C11.5017 20.799 11.7406 21.5793 12.1876 22.2411C12.6345 22.9028 13.2693 23.4158 14.0101 23.7139C13.9541 24.4901 14.1257 25.2657 14.5039 25.9457C14.882 26.6258 15.4504 27.1808 16.1392 27.5427C16.828 27.9046 17.6075 28.0578 18.3821 27.9834C19.1566 27.909 19.8927 27.6104 20.5001 27.1239C21.1075 27.6104 21.8435 27.909 22.6181 27.9834C23.3927 28.0578 24.1721 27.9046 24.861 27.5427C25.5498 27.1808 26.1181 26.6258 26.4963 25.9457C26.8745 25.2657 27.0461 24.4901 26.9901 23.7139ZM24.8821 16.6779C24.8306 16.8205 24.8122 16.973 24.8283 17.1237C24.8444 17.2745 24.8946 17.4196 24.975 17.5481C25.0554 17.6766 25.1641 17.7851 25.2926 17.8655C25.4212 17.9459 25.5663 17.9959 25.7171 18.0119C26.2067 18.0658 26.6592 18.2985 26.9879 18.6653C27.3166 19.0322 27.4983 19.5074 27.4983 19.9999C27.4983 20.4925 27.3166 20.9677 26.9879 21.3346C26.6592 21.7014 26.2067 21.9341 25.7171 21.9879C25.5663 22.0039 25.4212 22.054 25.2926 22.1344C25.1641 22.2147 25.0554 22.3233 24.975 22.4518C24.8946 22.5803 24.8444 22.7254 24.8283 22.8762C24.8122 23.0269 24.8306 23.1793 24.8821 23.3219C25.0493 23.7825 25.0417 24.2884 24.8606 24.7437C24.6796 25.199 24.3377 25.572 23.8998 25.7919C23.462 26.0118 22.9587 26.0633 22.4853 25.9367C22.012 25.8101 21.6016 25.5141 21.3321 25.1049C21.2408 24.9678 21.117 24.8553 20.9718 24.7775C20.8266 24.6997 20.6643 24.659 20.4996 24.659C20.3348 24.659 20.1726 24.6997 20.0274 24.7775C19.8821 24.8553 19.7584 24.9678 19.6671 25.1049C19.3975 25.5141 18.9871 25.8101 18.5138 25.9367C18.0405 26.0633 17.5372 26.0118 17.0993 25.7919C16.6615 25.572 16.3196 25.199 16.1385 24.7437C15.9575 24.2884 15.9498 23.7825 16.1171 23.3219C16.1684 23.1795 16.1866 23.0272 16.1705 22.8767C16.1544 22.7261 16.1043 22.5812 16.0239 22.4528C15.9436 22.3245 15.8352 22.216 15.7069 22.1356C15.5785 22.0553 15.4336 22.0051 15.2831 21.9889C14.7926 21.9361 14.3389 21.7038 14.0092 21.3368C13.6796 20.9697 13.4972 20.4938 13.4972 20.0004C13.4972 19.5071 13.6796 19.0311 14.0092 18.6641C14.3389 18.297 14.7926 18.0648 15.2831 18.0119C15.4338 17.9959 15.579 17.9459 15.7075 17.8655C15.8361 17.7851 15.9447 17.6766 16.0251 17.5481C16.1056 17.4196 16.1557 17.2745 16.1718 17.1237C16.1879 16.973 16.1696 16.8205 16.1181 16.6779C15.9508 16.2174 15.9585 15.7115 16.1395 15.2562C16.3206 14.8009 16.6625 14.4279 17.1003 14.208C17.5382 13.9881 18.0415 13.9366 18.5148 14.0632C18.9881 14.1898 19.3985 14.4858 19.6681 14.8949C19.7594 15.0321 19.8831 15.1446 20.0284 15.2224C20.1736 15.3002 20.3358 15.3409 20.5006 15.3409C20.6653 15.3409 20.8276 15.3002 20.9728 15.2224C21.118 15.1446 21.2418 15.0321 21.3331 14.8949C21.6026 14.4858 22.013 14.1898 22.4863 14.0632C22.9597 13.9366 23.463 13.9881 23.9008 14.208C24.3387 14.4279 24.6806 14.8009 24.8616 15.2562C25.0427 15.7115 25.0493 16.2174 24.8821 16.6779Z" fill="white"/>
<path d="M24 20C24 20.9283 23.6313 21.8185 22.9749 22.4749C22.3185 23.1313 21.4283 23.5 20.5 23.5C19.5717 23.5 18.6815 23.1313 18.0251 22.4749C17.3687 21.8185 17 20.9283 17 20C17 19.0717 17.3687 18.1815 18.0251 17.5251C18.6815 16.8687 19.5717 16.5 20.5 16.5C21.4283 16.5 22.3185 16.8687 22.9749 17.5251C23.6313 18.1815 24 19.0717 24 20Z" fill="white"/>
<path fill-rule="evenodd" clip-rule="evenodd" d="M20.5 31C26.575 31 31.5 26.075 31.5 20C31.5 13.925 26.575 9 20.5 9C14.425 9 9.5 13.925 9.5 20C9.5 26.075 14.425 31 20.5 31ZM20.5 33C27.68 33 33.5 27.18 33.5 20C33.5 12.82 27.68 7 20.5 7C13.32 7 7.5 12.82 7.5 20C7.5 27.18 13.32 33 20.5 33Z" fill="white"/>
</g>
<defs>
<linearGradient id="paint0_linear_119_592" x1="20.5" y1="0" x2="20.5" y2="27" gradientUnits="userSpaceOnUse">
<stop stop-color="#76DEFF"/>
<stop offset="1" stop-color="#50A5E6"/>
</linearGradient>
<clipPath id="clip0_119_592">
<rect width="26" height="26" fill="white" transform="translate(7.5 7)"/>
</clipPath>
</defs>
</svg>
