<svg width="25" height="25" viewBox="0 0 25 25" fill="none" xmlns="http://www.w3.org/2000/svg">
<g clip-path="url(#clip0_120_1445)">
<rect x="0.287598" width="24.3255" height="24.2694" rx="12.1347" fill="#001A45"/>
<path d="M12.4506 22.2472C6.85266 22.2472 2.31494 17.72 2.31494 12.135C2.31494 6.54997 6.85266 2.02271 12.4506 2.02271C18.0485 2.02271 22.5862 6.54997 22.5862 12.135C22.5862 17.72 18.0485 22.2472 12.4506 22.2472ZM12.4506 20.2248C14.6011 20.2248 16.6635 19.3725 18.1842 17.8553C19.7048 16.3382 20.5591 14.2805 20.5591 12.135C20.5591 9.98942 19.7048 7.93174 18.1842 6.41461C16.6635 4.89748 14.6011 4.04516 12.4506 4.04516C10.3001 4.04516 8.23764 4.89748 6.717 6.41461C5.19636 7.93174 4.34207 9.98942 4.34207 12.135C4.34207 14.2805 5.19636 16.3382 6.717 17.8553C8.23764 19.3725 10.3001 20.2248 12.4506 20.2248ZM7.38276 12.135H9.40989C9.40989 12.9396 9.73024 13.7112 10.3005 14.2801C10.8707 14.849 11.6441 15.1686 12.4506 15.1686C13.257 15.1686 14.0304 14.849 14.6007 14.2801C15.1709 13.7112 15.4913 12.9396 15.4913 12.135H17.5184C17.5184 13.4759 16.9845 14.762 16.0341 15.7102C15.0837 16.6584 13.7946 17.1911 12.4506 17.1911C11.1065 17.1911 9.81749 16.6584 8.86709 15.7102C7.91669 14.762 7.38276 13.4759 7.38276 12.135Z" fill="white"/>
</g>
<defs>
<clipPath id="clip0_120_1445">
<rect x="0.287598" width="24.3255" height="24.2694" rx="12.1347" fill="white"/>
</clipPath>
</defs>
</svg>
