<svg width="33" height="32" viewBox="0 0 33 32" fill="none" xmlns="http://www.w3.org/2000/svg">
<g clip-path="url(#clip0_130_1872)">
<path d="M25 0H8C3.85786 0 0.5 3.35786 0.5 7.5V24.5C0.5 28.6421 3.85786 32 8 32H25C29.1421 32 32.5 28.6421 32.5 24.5V7.5C32.5 3.35786 29.1421 0 25 0Z" fill="white"/>
<path d="M25 0H8C3.85786 0 0.5 3.35786 0.5 7.5V24.5C0.5 28.6421 3.85786 32 8 32H25C29.1421 32 32.5 28.6421 32.5 24.5V7.5C32.5 3.35786 29.1421 0 25 0Z" fill="#0A66C2"/>
<path d="M23.5894 27.2106H27.2481C27.3807 27.2106 27.5079 27.158 27.6016 27.0642C27.6954 26.9705 27.7481 26.8433 27.7481 26.7108L27.75 18.9805C27.75 14.9401 26.8794 11.8345 22.1577 11.8345C20.3629 11.7678 18.6702 12.693 17.7569 14.238C17.7524 14.2455 17.7456 14.2513 17.7375 14.2546C17.7294 14.2579 17.7205 14.2584 17.7121 14.2562C17.7036 14.2539 17.6962 14.2489 17.6908 14.242C17.6855 14.2351 17.6826 14.2266 17.6825 14.2179V12.7075C17.6825 12.5749 17.6298 12.4477 17.5361 12.3539C17.4423 12.2602 17.3151 12.2075 17.1825 12.2075H13.7104C13.5778 12.2075 13.4506 12.2602 13.3568 12.3539C13.2631 12.4477 13.2104 12.5749 13.2104 12.7075V26.71C13.2104 26.8426 13.2631 26.9698 13.3568 27.0636C13.4506 27.1573 13.5778 27.21 13.7104 27.21H17.3689C17.5015 27.21 17.6287 27.1573 17.7224 27.0636C17.8162 26.9698 17.8689 26.8426 17.8689 26.71V19.7884C17.8689 17.8313 18.2401 15.9359 20.6665 15.9359C23.0584 15.9359 23.0894 18.1754 23.0894 19.9151V26.7106C23.0894 26.8432 23.1421 26.9704 23.2358 27.0642C23.3296 27.1579 23.4568 27.2106 23.5894 27.2106ZM5.25 7.4535C5.25 8.9365 6.47088 10.1567 7.954 10.1567C9.43675 10.1566 10.6569 8.93563 10.6569 7.45288C10.6566 5.97013 9.43637 4.75 7.9535 4.75C6.47025 4.75 5.25 5.9705 5.25 7.4535ZM6.11987 27.2106H9.78325C9.91586 27.2106 10.043 27.1579 10.1368 27.0642C10.2306 26.9704 10.2832 26.8432 10.2832 26.7106V12.7075C10.2832 12.5749 10.2306 12.4477 10.1368 12.3539C10.043 12.2602 9.91586 12.2075 9.78325 12.2075H6.11987C5.98727 12.2075 5.86009 12.2602 5.76632 12.3539C5.67255 12.4477 5.61987 12.5749 5.61987 12.7075V26.7106C5.61987 26.8432 5.67255 26.9704 5.76632 27.0642C5.86009 27.1579 5.98727 27.2106 6.11987 27.2106Z" fill="white"/>
</g>
<defs>
<clipPath id="clip0_130_1872">
<rect width="32" height="32" fill="white" transform="translate(0.5)"/>
</clipPath>
</defs>
</svg>
