<svg width="25" height="24" viewBox="0 0 25 24" fill="none" xmlns="http://www.w3.org/2000/svg">
<path d="M9.50015 16.17L6.03015 12.7C5.84317 12.513 5.58957 12.4079 5.32515 12.4079C5.06072 12.4079 4.80712 12.513 4.62015 12.7C4.43317 12.8869 4.32812 13.1405 4.32812 13.405C4.32813 13.5359 4.35391 13.6655 4.40402 13.7865C4.45412 13.9075 4.52756 14.0174 4.62015 14.11L8.80015 18.29C9.19015 18.68 9.82015 18.68 10.2101 18.29L20.7901 7.70996C20.9771 7.52298 21.0822 7.26938 21.0822 7.00496C21.0822 6.74053 20.9771 6.48693 20.7901 6.29996C20.6032 6.11298 20.3496 6.00793 20.0851 6.00793C19.8207 6.00793 19.5671 6.11298 19.3801 6.29996L9.50015 16.17Z" fill="black"/>
</svg>
