<svg width="32" height="32" viewBox="0 0 32 32" fill="none" xmlns="http://www.w3.org/2000/svg">
<g clip-path="url(#clip0_132_7116)">
<path d="M15.9987 4C16.3385 4.00038 16.6654 4.13051 16.9125 4.3638C17.1596 4.59709 17.3083 4.91594 17.3283 5.25519C17.3482 5.59445 17.2378 5.92851 17.0197 6.18911C16.8016 6.44971 16.4922 6.6172 16.1547 6.65733L15.9987 6.66667H9.33203C9.00545 6.66671 8.69025 6.78661 8.4462 7.00362C8.20216 7.22063 8.04624 7.51967 8.00803 7.844L7.9987 8V24C7.99874 24.3266 8.11864 24.6418 8.33565 24.8858C8.55266 25.1299 8.8517 25.2858 9.17603 25.324L9.33203 25.3333H15.332C15.6719 25.3337 15.9987 25.4638 16.2459 25.6971C16.493 25.9304 16.6417 26.2493 16.6616 26.5885C16.6815 26.9278 16.5711 27.2618 16.353 27.5224C16.1349 27.783 15.8255 27.9505 15.488 27.9907L15.332 28H9.33203C8.31175 28.0001 7.33001 27.6102 6.58768 26.9103C5.84536 26.2103 5.39855 25.2532 5.3387 24.2347L5.33203 24V8C5.33197 6.97972 5.7218 5.99798 6.42174 5.25565C7.12169 4.51332 8.07884 4.06652 9.09736 4.00667L9.33203 4H15.9987ZM23.608 11.2853L27.3787 15.0573C27.6287 15.3074 27.7691 15.6464 27.7691 16C27.7691 16.3536 27.6287 16.6926 27.3787 16.9427L23.608 20.7147C23.3578 20.9647 23.0186 21.1051 22.6649 21.1049C22.3112 21.1048 21.972 20.9642 21.722 20.714C21.472 20.4638 21.3316 20.1246 21.3318 19.7709C21.3319 19.4172 21.4725 19.078 21.7227 18.828L23.2174 17.3333H15.9987C15.6451 17.3333 15.3059 17.1929 15.0559 16.9428C14.8058 16.6928 14.6654 16.3536 14.6654 16C14.6654 15.6464 14.8058 15.3072 15.0559 15.0572C15.3059 14.8071 15.6451 14.6667 15.9987 14.6667H23.2174L21.7227 13.172C21.4725 12.922 21.3319 12.5828 21.3318 12.2291C21.3316 11.8754 21.472 11.5362 21.722 11.286C21.972 11.0358 22.3112 10.8952 22.6649 10.8951C23.0186 10.8949 23.3578 11.0353 23.608 11.2853Z" fill="#0450CF"/>
</g>
<defs>
<clipPath id="clip0_132_7116">
<rect width="32" height="32" fill="white"/>
</clipPath>
</defs>
</svg>
